<svg
   xmlns:x="adobe:ns:meta/"
   xmlns:dc="http://purl.org/dc/elements/1.1/"
   xmlns:cc="http://creativecommons.org/ns#"
   xmlns:rdf="http://www.w3.org/1999/02/22-rdf-syntax-ns#"
   xmlns:svg="http://www.w3.org/2000/svg"
   xmlns="http://www.w3.org/2000/svg"
   xmlns:sodipodi="http://sodipodi.sourceforge.net/DTD/sodipodi-0.dtd"
   xmlns:inkscape="http://www.inkscape.org/namespaces/inkscape"
   width="25.531"
   height="24.625"
   viewBox="0 0 25.531 24.625"
   version="1.1"
   id="svg27"
   sodipodi:docname="airplane.svg"
   enable-background="new"
   inkscape:version="0.92.4 (5da689c313, 2019-01-14)">
  <sodipodi:namedview
     pagecolor="#ffffff"
     bordercolor="#666666"
     borderopacity="1"
     objecttolerance="10"
     gridtolerance="10"
     guidetolerance="10"
     inkscape:pageopacity="0"
     inkscape:pageshadow="2"
     inkscape:window-width="1366"
     inkscape:window-height="705"
     id="namedview29"
     showgrid="false"
     inkscape:zoom="9.5837563"
     inkscape:cx="-6.0162797"
     inkscape:cy="12.3125"
     inkscape:window-x="-8"
     inkscape:window-y="-8"
     inkscape:window-maximized="1"
     inkscape:current-layer="svg27" /> -->
 <!--  <metadata
     id="metadata2">
  
      <metadata>
        <rdf:RDF>
          <rdf:Description
             rdf:about="" />
          <cc:Work
             rdf:about="">
            <dc:format>image/svg+xml</dc:format>
            <dc:type
               rdf:resource="http://purl.org/dc/dcmitype/StillImage" />
            <dc:title></dc:title>
          </cc:Work>
        </rdf:RDF>
      </metadata>
    </x:xmpmeta> -->
<?xpacket end="w"?> <!--  </metadata> -->
  <defs
     id="defs23">
   <style
       id="style4">
      .cls-1 {
        fill: #fff;
        fill-rule: evenodd;
        filter: url(#filter);
      }
    </style>
    <filter
       id="filter"
       x="544.125"
       y="148.375"
       width="25.531"
       height="24.625"
       filterUnits="userSpaceOnUse">
      <feOffset
         result="offset"
         dy="1"
         in="SourceAlpha"
         id="feOffset6" />
      <feGaussianBlur
         result="blur"
         id="feGaussianBlur8" />
      <feFlood
         result="flood"
         flood-color="#fff"
         id="feFlood10" />
      <feComposite
         result="composite"
         operator="in"
         in2="blur"
         id="feComposite12" />
      <feBlend
         result="blend"
         in="SourceGraphic"
         in2="composite"
         id="feBlend14" />
      <feFlood
         result="flood-2"
         flood-color="#701dbb"
         id="feFlood16" />
      <feComposite
         result="composite-2"
         operator="in"
         in2="SourceGraphic"
         id="feComposite18" />
      <feBlend
         result="blend-2"
         in2="blend"
         id="feBlend20" />
    </filter>
    <filter
       inkscape:collect="always"
       style="color-interpolation-filters:sRGB"
       id="filter962">
      <feBlend
         inkscape:collect="always"
         mode="overlay"
         in2="BackgroundImage"
         id="feBlend964" />
    </filter>
  </defs>
  <path
     class="cls-1"
     d="M550.966,171.285a0.667,0.667,0,0,1-.219-0.037,0.68,0.68,0,0,1-.453-0.628l-0.121-5.857-5.678-2.872c-0.02-.01-0.041-0.021-0.06-0.033a0.785,0.785,0,0,1-.066-0.047,0.683,0.683,0,0,1-.23-0.358,0.474,0.474,0,0,1-.015-0.075,0.681,0.681,0,0,1,.1-0.468h0a0.188,0.188,0,0,1,.016-0.023s0,0,0,0a0.662,0.662,0,0,1,.258-0.219l24.166-12.222a0.635,0.635,0,0,1,.124-0.051,0.626,0.626,0,0,1,.111-0.023,0.66,0.66,0,0,1,.221.01,0.667,0.667,0,0,1,.212.086h0a0.7,0.7,0,0,1,.175.158,0.667,0.667,0,0,1,.106.2,0.787,0.787,0,0,1,.031.125,0.719,0.719,0,0,1-.007.24,0.676,0.676,0,0,1-.047.142l-9.06,21.384a0.68,0.68,0,0,1-.121.2h0l-0.025.027h0a0,0,0,0,0,0,0,0.666,0.666,0,0,1-.448.2h-0.021a0.022,0.022,0,0,1-.008,0,0.657,0.657,0,0,1-.387-0.124l-5.121-3.571-2.915,3.6A0.669,0.669,0,0,1,550.966,171.285Zm4.3-4.891,3.937,2.746-0.177-7.216Zm-3.752-1.742,0.084,4.1,2.153-2.655,0.006-.007h0l0,0,9.626-11.442-5.422,4.571-0.031.025Zm8.819-4.281,0.17,6.954,6.109-14.417Zm-13.494,1.187,3.9,1.974,4.314-3.636Zm17.262-9.287-14.526,7.347,7.645-1.547Z"
     id="path25"
     style="fill:#7d7d7d;fill-opacity:1;filter:url(#filter962)"
     transform="translate(-544.125 -148.375)" />
</svg>
