<svg xmlns="http://www.w3.org/2000/svg" width="19.5" height="27"><defs><filter id="a" x="704.781" y="147" width="19.5" height="27" filterUnits="userSpaceOnUse"><feOffset result="offset" dy="1" in="SourceAlpha"/><feGaussianBlur result="blur"/><feFlood result="flood" flood-color="#fff"/><feComposite result="composite" operator="in" in2="blur"/><feBlend result="blend" in="SourceGraphic"/><feFlood result="flood-2" flood-color="#7d7d7d"/><feComposite result="composite-2" operator="in" in2="SourceGraphic"/><feBlend result="blend-2" in2="blend"/></filter></defs><path d="M723.617 173h-18.16a.678.678 0 0 1-.672-.684v-24.632a.678.678 0 0 1 .672-.684h12.109a.664.664 0 0 1 .47.2l6.053 6.158a.686.686 0 0 1 .193.478v18.474a.678.678 0 0 1-.665.69zm-17.487-1.368h16.814v-17.106h-5.38a.678.678 0 0 1-.673-.684v-5.473H706.13v23.263zm12.106-18.474h3.757l-3.757-3.822v3.822zm2.354 14.71h-12.106a.684.684 0 0 1 0-1.368h12.106a.684.684 0 0 1 0 1.368zm0-3.078h-12.106a.685.685 0 0 1 0-1.369h12.106a.685.685 0 0 1 0 1.369zm-6.053-3.079h-6.053a.685.685 0 0 1 0-1.369h6.053a.685.685 0 0 1 0 1.369zm-.473-7.185h-5.58a.678.678 0 0 1-.673-.684v-3.079a.678.678 0 0 1 .673-.684h5.58a.679.679 0 0 1 .673.684v3.079a.679.679 0 0 1-.673.684zm-4.908-1.368h4.236v-1.711h-4.236v1.711z" transform="translate(-704.781 -147)" fill="#fff" fill-rule="evenodd" filter="url(#a)"/></svg>