<svg
   xmlns:x="adobe:ns:meta/"
   xmlns:dc="http://purl.org/dc/elements/1.1/"
   xmlns:cc="http://creativecommons.org/ns#"
   xmlns:rdf="http://www.w3.org/1999/02/22-rdf-syntax-ns#"
   xmlns:svg="http://www.w3.org/2000/svg"
   xmlns="http://www.w3.org/2000/svg"
   xmlns:sodipodi="http://sodipodi.sourceforge.net/DTD/sodipodi-0.dtd"
   xmlns:inkscape="http://www.inkscape.org/namespaces/inkscape"
   width="16.469"
   height="27"
   viewBox="0 0 16.469 27"
   version="1.1"
   id="svg27"
   sodipodi:docname="Shape1blue.svg"
   enable-background="new"
   inkscape:version="0.92.4 (5da689c313, 2019-01-14)">
  <sodipodi:namedview
     pagecolor="#ffffff"
     bordercolor="#666666"
     borderopacity="1"
     objecttolerance="10"
     gridtolerance="10"
     guidetolerance="10"
     inkscape:pageopacity="0"
     inkscape:pageshadow="2"
     inkscape:window-width="1366"
     inkscape:window-height="705"
     id="namedview29"
     showgrid="false"
     inkscape:zoom="8.7407407"
     inkscape:cx="8.2344999"
     inkscape:cy="13.5"
     inkscape:window-x="-8"
     inkscape:window-y="-8"
     inkscape:window-maximized="1"
     inkscape:current-layer="svg27" />
  

<?xpacket end="w"?> 
  <defs
     id="defs23">
    <style
       id="style4">
      .cls-1 {
        fill: #fff;
        fill-rule: evenodd;
        filter: url(#filter);
      }
    </style>
    <filter
       id="filter"
       x="870.531"
       y="147"
       width="16.469"
       height="27"
       filterUnits="userSpaceOnUse">
      <feOffset
         result="offset"
         dy="1"
         in="SourceAlpha"
         id="feOffset6" />
      <feGaussianBlur
         result="blur"
         id="feGaussianBlur8" />
      <feFlood
         result="flood"
         flood-color="#fff"
         id="feFlood10" />
      <feComposite
         result="composite"
         operator="in"
         in2="blur"
         id="feComposite12" />
      <feBlend
         result="blend"
         in="SourceGraphic"
         in2="composite"
         id="feBlend14" />
      <feFlood
         result="flood-2"
         flood-color="#7d7d7d"
         id="feFlood16" />
      <feComposite
         result="composite-2"
         operator="in"
         in2="SourceGraphic"
         id="feComposite18" />
      <feBlend
         result="blend-2"
         in2="blend"
         id="feBlend20" />
    </filter>
    <filter
       inkscape:collect="always"
       style="color-interpolation-filters:sRGB"
       id="filter926">
      <feBlend
         inkscape:collect="always"
         mode="overlay"
         in2="BackgroundImage"
         id="feBlend928" />
    </filter>
  </defs>
  <path
     class="cls-1"
     d="M878.756,172.316h0a0.671,0.671,0,0,1-.594-0.362l-6.945-13.234a0.444,0.444,0,0,1-.024-0.049,8.239,8.239,0,1,1,15.092.079c-0.007.015-.013,0.029-0.021,0.043l-6.914,13.162A0.672,0.672,0,0,1,878.756,172.316ZM872.417,158.1l6.34,12.079,6.309-12.009a7.023,7.023,0,0,0,.584-2.822,6.895,6.895,0,1,0-13.788,0A7.026,7.026,0,0,0,872.417,158.1Zm6.339,1.308a4.365,4.365,0,1,1,4.305-4.365A4.34,4.34,0,0,1,878.756,159.412Zm0-7.366a3,3,0,1,0,2.96,3A2.984,2.984,0,0,0,878.756,152.046Z"
     transform="translate(-870.531 -147)"
     id="path25"
     style="fill:#701dbb;fill-opacity:1;filter:url(#filter926)" />
</svg>
