<?xml version="1.0" encoding="UTF-8" standalone="no"?>
<svg
   xmlns:x="adobe:ns:meta/"
   xmlns:osb="http://www.openswatchbook.org/uri/2009/osb"
   xmlns:dc="http://purl.org/dc/elements/1.1/"
   xmlns:cc="http://creativecommons.org/ns#"
   xmlns:rdf="http://www.w3.org/1999/02/22-rdf-syntax-ns#"
   xmlns:svg="http://www.w3.org/2000/svg"
   xmlns="http://www.w3.org/2000/svg"
   xmlns:sodipodi="http://sodipodi.sourceforge.net/DTD/sodipodi-0.dtd"
   xmlns:inkscape="http://www.inkscape.org/namespaces/inkscape"
   width="13"
   height="9"
   viewBox="0 0 13 9"
   version="1.1"
   id="svg833"
   sodipodi:docname="twitter_f_blue.svg"
   inkscape:version="0.92.4 (5da689c313, 2019-01-14)">
  <sodipodi:namedview
     pagecolor="#ffffff"
     bordercolor="#666666"
     borderopacity="1"
     objecttolerance="10"
     gridtolerance="10"
     guidetolerance="10"
     inkscape:pageopacity="0"
     inkscape:pageshadow="2"
     inkscape:window-width="1366"
     inkscape:window-height="705"
     id="namedview835"
     showgrid="false"
     inkscape:zoom="59.555556"
     inkscape:cx="6.5"
     inkscape:cy="4.5"
     inkscape:window-x="-8"
     inkscape:window-y="-8"
     inkscape:window-maximized="1"
     inkscape:current-layer="svg833" />
  <metadata
     id="metadata826">
<?xpacket begin="ÿ" id="W5M0MpCehiHzreSzNTczkc9d"?>    <x:xmpmeta
       x:xmptk="Adobe XMP Core 5.6-c142 79.160924, 2017/07/13-01:06:39        ">
      <metadata>
        <rdf:RDF>
          <rdf:Description
             rdf:about="" />
          <cc:Work
             rdf:about="">
            <dc:format>image/svg+xml</dc:format>
            <dc:type
               rdf:resource="http://purl.org/dc/dcmitype/StillImage" />
            <dc:title></dc:title>
          </cc:Work>
        </rdf:RDF>
      </metadata>
    </x:xmpmeta>
<?xpacket end="w"?>  </metadata>
  <defs
     id="defs830">
    <linearGradient
       id="linearGradient2297"
       osb:paint="solid">
      <stop
         style="stop-color:#a34ff0;stop-opacity:1;"
         offset="0"
         id="stop2295" />
    </linearGradient>
    <linearGradient
       id="linearGradient2281"
       osb:paint="solid">
      <stop
         style="stop-color:#a34ff0;stop-opacity:1;"
         offset="0"
         id="stop2279" />
    </linearGradient>
    <style
       id="style828">
      .cls-1 {
        fill: #fff;
        fill-rule: evenodd;
      }
    </style>
  </defs>
  <path
     id="twitter_f"
     class="cls-1"
     d="M853,3617.15a3.09,3.09,0,0,1-1.473-.15,1.563,1.563,0,0,0,1.416-.85,2.264,2.264,0,0,1-1.532.17q-0.035-.15-0.072-0.3a2.793,2.793,0,0,0-2.756-2.16l0.3-.12c0.135-.05.932-0.18,0.807-0.46-0.106-.25-1.081.19-1.264,0.25a0.967,0.967,0,0,0,.685-0.53,1.964,1.964,0,0,0-1.016.48,0.686,0.686,0,0,0,.2-0.39,6.3,6.3,0,0,0-2.035,3.16,4.511,4.511,0,0,0-.985-0.79,23.986,23.986,0,0,0-3.336-1.48,1.773,1.773,0,0,0,1.112,1.64,2.742,2.742,0,0,0-.8.1,1.623,1.623,0,0,0,1.455,1.3,1.192,1.192,0,0,0-.891.35,1.5,1.5,0,0,0,1.6.79c-1,.43-0.407,1.24.4,1.12a3.446,3.446,0,0,1-4.823.13c3.274,4.48,10.391,2.65,11.452-1.67A1.962,1.962,0,0,0,853,3617.15Z"
     transform="translate(-840 -3613)"
     style="fill:#a34ff0;fill-opacity:1;opacity:1" />
</svg>
