<?xml version="1.0" encoding="UTF-8" standalone="no"?>
<svg
   xmlns:dc="http://purl.org/dc/elements/1.1/"
   xmlns:cc="http://creativecommons.org/ns#"
   xmlns:rdf="http://www.w3.org/1999/02/22-rdf-syntax-ns#"
   xmlns:svg="http://www.w3.org/2000/svg"
   xmlns="http://www.w3.org/2000/svg"
   xmlns:xlink="http://www.w3.org/1999/xlink"
   xmlns:sodipodi="http://sodipodi.sourceforge.net/DTD/sodipodi-0.dtd"
   xmlns:inkscape="http://www.inkscape.org/namespaces/inkscape"
   version="1.0"
   width="269"
   height="72"
   viewBox="0 0 201.75 54"
   preserveAspectRatio="xMidYMid meet"
   id="svg22"
   sodipodi:docname="Logo.svg"
   inkscape:version="0.92.4 (5da689c313, 2019-01-14)">
  <metadata
     id="metadata28">
    <rdf:RDF>
      <cc:Work
         rdf:about="">
        <dc:format>image/svg+xml</dc:format>
        <dc:type
           rdf:resource="http://purl.org/dc/dcmitype/StillImage" />
        <dc:title></dc:title>
      </cc:Work>
    </rdf:RDF>
  </metadata>
  <defs
     id="defs26">
    <linearGradient
       id="linearGradient1199"
       inkscape:collect="always">
      <stop
         id="stop1207"
         offset="0"
         style="stop-color:#6017a3;stop-opacity:1;" />
      <stop
         id="stop1209"
         offset="1"
         style="stop-color:#9f46d1;stop-opacity:1" />
    </linearGradient>
    <filter
       id="filter"
       x="365.84399"
       y="80.844002"
       width="187.125"
       height="12.156"
       filterUnits="userSpaceOnUse">
      <feOffset
         result="offset"
         dy="1"
         in="SourceAlpha"
         id="feOffset6" />
      <feGaussianBlur
         result="blur"
         id="feGaussianBlur8" />
      <feFlood
         result="flood"
         flood-color="#fff"
         id="feFlood10" />
      <feComposite
         result="composite"
         operator="in"
         in2="blur"
         id="feComposite12" />
      <feBlend
         mode="normal"
         result="blend"
         in="SourceGraphic"
         in2="composite"
         id="feBlend14" />
    </filter>
    <filter
       id="filter-9"
       x="365.84399"
       y="82.813004"
       width="187.125"
       height="12.188"
       filterUnits="userSpaceOnUse">
      <feOffset
         result="offset"
         dy="1"
         in="SourceAlpha"
         id="feOffset6-5" />
      <feGaussianBlur
         result="blur"
         id="feGaussianBlur8-6" />
      <feFlood
         result="flood"
         flood-color="#fff"
         id="feFlood10-1" />
      <feComposite
         result="composite"
         operator="in"
         in2="blur"
         id="feComposite12-5" />
      <feBlend
         mode="normal"
         result="blend"
         in="SourceGraphic"
         in2="composite"
         id="feBlend14-2" />
    </filter>
    <linearGradient
       inkscape:collect="always"
       xlink:href="#linearGradient1199"
       id="linearGradient1205"
       x1="133.98378"
       y1="103.90021"
       x2="420.9758"
       y2="473.93692"
       gradientUnits="userSpaceOnUse"
       gradientTransform="translate(0,-15)" />
  </defs>
  <sodipodi:namedview
     pagecolor="#ffffff"
     bordercolor="#666666"
     borderopacity="1"
     objecttolerance="10"
     gridtolerance="10"
     guidetolerance="10"
     inkscape:pageopacity="0"
     inkscape:pageshadow="2"
     inkscape:window-width="1366"
     inkscape:window-height="705"
     id="namedview24"
     showgrid="false"
     inkscape:zoom="1.6144185"
     inkscape:cx="106.31377"
     inkscape:cy="35.418644"
     inkscape:window-x="-8"
     inkscape:window-y="-8"
     inkscape:window-maximized="1"
     inkscape:current-layer="g20"
     units="px" />
  <g
     transform="matrix(0.1,0,0,-0.1,0,54)"
     id="g20"
     style="fill:#000000;stroke:none">
    <path
       d="M 191,514 C 16,481 -54,269 66,136 122,73 185,50 271,58 c 43,5 71,2 113,-12 69,-25 77,-17 65,62 -8,47 -6,63 7,90 25,47 22,133 -5,190 -47,98 -148,146 -260,126 z m 151,-69 c 78,-53 107,-148 71,-231 -13,-29 -18,-58 -15,-86 l 4,-43 -33,14 c -23,10 -55,12 -104,9 -103,-8 -165,26 -200,110 -37,90 4,190 100,242 43,23 133,16 177,-15 z"
       id="path2"
       inkscape:connector-curvature="0"
       style="opacity:1;fill:url(#linearGradient1205);fill-opacity:1" />
    <path
       d="m 145,405 c -39,-40 -54,-80 -35,-98 9,-9 15,-7 24,8 6,11 30,39 54,63 24,23 40,47 37,52 -12,20 -45,9 -80,-25 z"
       id="path4"
       inkscape:connector-curvature="0"
       style="fill:#6017a3;fill-opacity:1" />
    <path
       d="M 1430,355 V 220 h 30 30 v 135 135 h -30 -30 z"
       id="path6"
       inkscape:connector-curvature="0"
       style="fill:#6017a3;fill-opacity:1" />
    <path
       d="m 627,453 c -4,-3 -7,-15 -7,-25 0,-10 -7,-18 -15,-18 -9,0 -15,-9 -15,-24 0,-13 7,-26 15,-30 11,-4 15,-21 15,-59 0,-29 5,-58 12,-65 7,-7 32,-12 56,-12 39,0 43,2 40,23 -2,14 -11,23 -25,25 -20,3 -23,9 -23,48 0,37 3,44 20,44 15,0 20,7 20,25 0,18 -5,25 -20,25 -15,0 -20,7 -20,25 0,20 -5,25 -23,25 -13,0 -27,-3 -30,-7 z"
       id="path8"
       inkscape:connector-curvature="0"
       style="fill:#6017a3;fill-opacity:1" />
    <path
       d="m 770,315 v -95 h 30 c 30,0 30,0 30,59 0,64 15,87 50,78 22,-6 46,25 35,43 -8,13 -58,13 -72,-1 -8,-8 -13,-8 -17,0 -4,6 -18,11 -32,11 -24,0 -24,-1 -24,-95 z"
       id="path10"
       inkscape:connector-curvature="0"
       style="fill:#6017a3;fill-opacity:1" />
    <path
       d="m 966,384 c -55,-56 -22,-164 50,-164 20,0 44,5 55,10 13,7 19,7 19,0 0,-5 14,-10 30,-10 h 30 v 95 95 h -29 c -16,0 -31,-6 -34,-12 -4,-10 -7,-10 -18,0 -23,21 -74,14 -103,-14 z m 108,-40 c 19,-19 20,-35 3,-58 -16,-21 -55,-18 -70,6 -8,12 -7,24 1,42 13,29 43,34 66,10 z"
       id="path12"
       inkscape:connector-curvature="0"
       style="fill:#6017a3;fill-opacity:1" />
    <path
       d="m 1181,403 c 0,-5 17,-46 38,-93 35,-81 38,-85 71,-88 l 35,-3 35,87 c 19,48 37,91 38,95 2,5 -12,9 -32,9 -34,0 -36,-2 -52,-55 -10,-30 -20,-55 -24,-55 -3,0 -14,25 -25,55 -17,52 -20,55 -52,55 -18,0 -33,-3 -32,-7 z"
       id="path14"
       inkscape:connector-curvature="0"
       style="fill:#6017a3;fill-opacity:1" />
    <path
       d="m 1577,395 c -54,-31 -62,-101 -18,-146 24,-24 38,-29 76,-29 62,0 89,14 75,40 -9,16 -15,17 -39,9 -21,-7 -36,-7 -50,1 -37,20 -22,30 44,30 h 65 v 33 c 0,21 -8,41 -20,52 -27,24 -98,29 -133,10 z m 77,-31 c 28,-11 17,-24 -20,-24 -31,0 -35,2 -24,15 14,17 21,18 44,9 z"
       id="path16"
       inkscape:connector-curvature="0"
       style="fill:#6017a3;fill-opacity:1" />
    <path
       d="m 1770,315 v -95 h 35 35 v 64 c 0,67 11,83 50,71 11,-4 20,3 28,19 6,13 8,27 5,30 -11,11 -69,6 -81,-6 -9,-9 -12,-9 -12,0 0,7 -13,12 -30,12 h -30 z"
       id="path18"
       inkscape:connector-curvature="0"
       style="fill:#6017a3;fill-opacity:1" />
    <path
       inkscape:connector-curvature="0"
       id="Get_the_advice_you_need_about_travel"
       data-name="Get the advice you need about travel"
       class="cls-1"
       d="m 625.89564,101.05098 10.08,-1.8 -3.69,-17.550004 a 21.675,21.675 0 0 0 -4.14,-1.665 18.33,18.33 0 0 0 -4.95,-0.585 15.2475,15.2475 0 0 0 -7.155,1.575 14.7525,14.7525 0 0 0 -5.04,4.275004 18.5925,18.5925 0 0 0 -3,6.3 28.7325,28.7325 0 0 0 -0.99,7.65 40.905,40.905 0 0 0 2.16,13.905 30.0525,30.0525 0 0 0 5.805,10.035 23.805,23.805 0 0 0 8.37,6.075 24.9825,24.9825 0 0 0 9.945,2.025 33.4125,33.4125 0 0 0 6.795,-0.63 17.67,17.67 0 0 0 4.815,-1.62 l 3.15,6.57 a 23.6175,23.6175 0 0 1 -5.445,1.665 44.4975,44.4975 0 0 1 -8.505,0.675 37.005,37.005 0 0 1 -11.88,-2.07 31.5525,31.5525 0 0 1 -11.205,-6.705 34.6875,34.6875 0 0 1 -8.325,-12.195 47.3325,47.3325 0 0 1 -3.24,-18.63 31.545,31.545 0 0 1 1.8,-11.16 23.1525,23.1525 0 0 1 4.86,-7.965004 20.1525,20.1525 0 0 1 7.065,-4.815 22.5,22.5 0 0 1 8.505,-1.62 25.7325,25.7325 0 0 1 15.84,4.77 l 5.85,27.750004 h -16.575 z m 54.75,-18.450004 a 20.0775,20.0775 0 0 0 -5.085,-2.745 19.44,19.44 0 0 0 -7.245,-1.305 8.085,8.085 0 0 0 -7.02,3.105 13.4025,13.4025 0 0 0 -2.25,8.055004 23.4525,23.4525 0 0 0 0.18,2.7 q 0.18,1.5 0.54,3.24 1.26,-0.09 2.43,-0.135 1.17,-0.045 2.25,-0.045 a 36.2625,36.2625 0 0 1 18.06,3.6675 11.1825,11.1825 0 0 1 6.21,10.035 11.6475,11.6475 0 0 1 -0.75,4.095 9.1875,9.1875 0 0 1 -2.25,3.42 11.25,11.25 0 0 1 -3.915,2.385 15.9375,15.9375 0 0 1 -5.625,0.9 19.245,19.245 0 0 1 -8.775,-2.16 24.0975,24.0975 0 0 1 -7.65,-6.21 31.9425,31.9425 0 0 1 -5.445,-9.9 39.51,39.51 0 0 1 -2.07,-13.23 16.845,16.845 0 0 1 3.645,-11.520004 13.6875,13.6875 0 0 1 10.845,-4.14 27.555,27.555 0 0 1 8.595,1.395 21.51,21.51 0 0 1 7.425,4.095 z m -2.205,31.095004 a 5.34,5.34 0 0 0 2.025,-1.26 4.605,4.605 0 0 0 1.035,-1.71 5.82,5.82 0 0 0 0.315,-1.845 5.7225,5.7225 0 0 0 -1.98,-4.635 12.3375,12.3375 0 0 0 -4.995,-2.43 33.945,33.945 0 0 0 -6.705,-0.945 q -3.69,-0.18 -7.11,-0.18 a 21.3,21.3 0 0 0 5.535,10.125 12.2325,12.2325 0 0 0 8.595,3.375 9.3675,9.3675 0 0 0 3.255,-0.495 z m 18.495,-0.585 h 6.75001 l -6.12001,-29.070004 a 19.8825,19.8825 0 0 1 -0.45,-3.75 6.9375,6.9375 0 0 1 8.19001,-7.5 25.5975,25.5975 0 0 1 5.67,0.675 17.82,17.82 0 0 1 4.86,1.755 v 5.49 a 15.87,15.87 0 0 0 -3.6,-1.62 13.74,13.74 0 0 0 -3.96,-0.54 4.6125,4.6125 0 0 0 -3,0.81 3.6825,3.6825 0 0 0 -0.99,3 11.04,11.04 0 0 0 0.135,1.62 q 0.135,0.9 0.315,1.980004 l 5.67,27.18 h 11.69999 l 1.35,5.76 h -11.78999 l 2.34,10.98 -7.2,-2.07 -1.89,-8.91 h -6.66001 z m 56.70001,0 h 6.74999 l -6.11999,-29.070004 a 19.8825,19.8825 0 0 1 -0.45,-3.75 6.9375,6.9375 0 0 1 8.18999,-7.5 25.5975,25.5975 0 0 1 5.67001,0.675 17.82,17.82 0 0 1 4.85999,1.755 v 5.49 a 15.87,15.87 0 0 0 -3.6,-1.62 13.74,13.74 0 0 0 -3.95999,-0.54 4.6125,4.6125 0 0 0 -3,0.81 3.6825,3.6825 0 0 0 -0.99,3 11.04,11.04 0 0 0 0.135,1.62 q 0.135,0.9 0.315,1.980004 l 5.67,27.18 h 11.7 l 1.35,5.76 h -11.79 l 2.34,10.98 -7.2,-2.07 -1.89,-8.91 h -6.66 z m 62.82,-39.240004 5.76,27.180004 a 43.7775,43.7775 0 0 1 1.17,9.09 9.6975,9.6975 0 0 1 -2.52,7.695 10.5,10.5 0 0 1 -6.93,2.115 16.9725,16.9725 0 0 1 -5.49,-0.855 24.18,24.18 0 0 1 -8.505,-4.995 27.0975,27.0975 0 0 1 -2.835,-3 h -0.36 l 5.58,25.74 h -6.78 l -13.32,-63.000004 h 6.75 l 5.67,27.270004 a 20.8875,20.8875 0 0 0 2.655,4.5 25.5,25.5 0 0 0 4.005,4.23 23.6775,23.6775 0 0 0 4.68,3.105 10.59,10.59 0 0 0 4.76999,1.215 5.6625,5.6625 0 0 0 4.23001,-1.395 6.69,6.69 0 0 0 1.35,-4.725 23.4075,23.4075 0 0 0 -0.36,-3.75 q -0.36,-2.115 -0.9,-4.815 l -5.4,-25.650004 h 6.75 z m 45.26249,8.73 a 20.0775,20.0775 0 0 0 -5.08499,-2.745 19.44,19.44 0 0 0 -7.245,-1.305 8.085,8.085 0 0 0 -7.02,3.105 13.4025,13.4025 0 0 0 -2.25,8.055004 23.4525,23.4525 0 0 0 0.18,2.7 q 0.18,1.5 0.54,3.24 1.26,-0.09 2.43,-0.135 1.17,-0.045 2.25,-0.045 a 36.2625,36.2625 0 0 1 18.06,3.6675 11.1825,11.1825 0 0 1 6.21,10.035 11.6475,11.6475 0 0 1 -0.75,4.095 9.1875,9.1875 0 0 1 -2.25,3.42 11.25,11.25 0 0 1 -3.915,2.385 15.9375,15.9375 0 0 1 -5.625,0.9 19.245,19.245 0 0 1 -8.775,-2.16 24.0975,24.0975 0 0 1 -7.65,-6.21 31.9425,31.9425 0 0 1 -5.445,-9.9 39.51,39.51 0 0 1 -2.07,-13.23 16.845,16.845 0 0 1 3.645,-11.520004 13.6875,13.6875 0 0 1 10.845,-4.14 27.555,27.555 0 0 1 8.595,1.395 21.51,21.51 0 0 1 7.425,4.095 z m -2.20499,31.095004 a 5.34,5.34 0 0 0 2.025,-1.26 4.605,4.605 0 0 0 1.035,-1.71 5.82,5.82 0 0 0 0.315,-1.845 5.7225,5.7225 0 0 0 -1.98001,-4.635 12.3375,12.3375 0 0 0 -4.99499,-2.43 33.945,33.945 0 0 0 -6.705,-0.945 q -3.69,-0.18 -7.11,-0.18 a 21.3,21.3 0 0 0 5.535,10.125 12.2325,12.2325 0 0 0 8.595,3.375 9.3675,9.3675 0 0 0 3.255,-0.495 z m 82.395,4.185 a 47.82,47.82 0 0 1 -6.75,1.575 39.81,39.81 0 0 1 -6.15,0.585 21.84,21.84 0 0 1 -11.805,-3.06 25.5,25.5 0 0 1 -7.9875,-7.83 34.86,34.86 0 0 1 -4.5825,-10.71 48.12,48.12 0 0 1 -1.5,-11.7 q 0,-13.950004 10.71,-13.950004 a 13.665,13.665 0 0 1 4.59,0.75 18.2025,18.2025 0 0 1 4.05,2.025 22.575,22.575 0 0 1 3.465,2.835 23.9475,23.9475 0 0 1 2.655,3.105 h 0.36 l 1.26,-7.83 h 4.95 a 12.3675,12.3675 0 0 0 -0.18,2.205 v 2.58 q 0,3 0.27,6.39 a 50.8725,50.8725 0 0 0 0.99,6.750004 z m -30.24,-36.945004 a 11.6175,11.6175 0 0 0 -1.35,5.805004 46.3275,46.3275 0 0 0 1.08,9.9 32.67,32.67 0 0 0 3.24,8.865 20.1825,20.1825 0 0 0 5.31,6.345 11.6025,11.6025 0 0 0 7.29,2.43 16.2075,16.2075 0 0 0 6.84,-1.26 l -5.04,-24.3 a 23.4975,23.4975 0 0 0 -2.16,-3.285 22.77,22.77 0 0 0 -3.105,-3.285004 19.17,19.17 0 0 0 -3.75,-2.565 8.8125,8.8125 0 0 0 -4.14,-1.035 4.5,4.5 0 0 0 -4.245,2.385 z m 81.26995,55.935004 h -6.75 l -3.96,-18.75 -1.89,0.675 a 12.3225,12.3225 0 0 1 -1.935,0.495 q -1.0349,0.18 -2.205,0.27 -1.17,0.09 -2.79,0.09 a 18.1425,18.1425 0 0 1 -10.30495,-3 25.8525,25.8525 0 0 1 -7.425,-7.56 36.12,36.12 0 0 1 -4.5,-10.215 41.595,41.595 0 0 1 -1.50001,-10.935 18.4425,18.4425 0 0 1 2.925,-11.565004 9.57,9.57 0 0 1 7.875,-3.645 13.7925,13.7925 0 0 1 4.54501,0.75 19.875,19.875 0 0 1 4.185,2.025 23.1675,23.1675 0 0 1 6.30005,5.94 h 0.36 l 1.26,-7.83 h 4.5 q -0.09,0.81 -0.135,1.62 -0.045,0.81 -0.045,1.8 a 48.75,48.75 0 0 0 0.36,5.67 q 0.36,3.060004 1.08,6.570004 z M 958.28815,81.205976 a 13.125,13.125 0 0 0 -1.44,6.345004 44.295,44.295 0 0 0 1.08,9.81 32.3775,32.3775 0 0 0 3.105,8.46 18.4875,18.4875 0 0 0 4.905,5.895 10.395,10.395 0 0 0 6.47995,2.205 25.725,25.725 0 0 0 5.0851,-0.405 10.1475,10.1475 0 0 0 3.465,-1.395 l -5.04,-23.4 a 21.6375,21.6375 0 0 0 -2.205,-3.285 24.9225,24.9225 0 0 0 -3.15,-3.285004 19.17,19.17 0 0 0 -3.75005,-2.565 8.31,8.31 0 0 0 -3.87,-1.035 4.92,4.92 0 0 0 -4.6575,2.655 z m 47.51995,37.665004 h -7.1999 l 8.7299,-45.990004 h 2.88 l 28.0801,45.990004 h -7.74 l -15.2625,-26.19 -3.8701,-8.730004 h -0.18 l -0.8099,8.550004 z m 34.7401,-45.000004 h 6.75 l 9.54,45.000004 h -6.75 z m 12.375,55.305004 a 4.7025,4.7025 0 0 1 3.465,-1.395 4.8525,4.8525 0 0 1 3.51,1.395 4.6275,4.6275 0 0 1 1.44,3.465 4.92,4.92 0 0 1 -4.95,4.95 4.635,4.635 0 0 1 -3.465,-1.44 4.86,4.86 0 0 1 -1.395,-3.51 4.7025,4.7025 0 0 1 1.365,-3.465 z m 39.465,-46.935004 a 24.75,24.75 0 0 0 -4.77,-2.475 15,15 0 0 0 -5.67,-1.215 8.25,8.25 0 0 0 -6.57,2.79 12.915,12.915 0 0 0 -2.43,8.640004 30.1425,30.1425 0 0 0 1.35,8.955 29.6775,29.6775 0 0 0 3.6,7.74 20.49,20.49 0 0 0 5.175,5.445 10.26,10.26 0 0 0 6,2.07 22.65,22.65 0 0 0 4.86,-0.495 12.9675,12.9675 0 0 0 3.75,-1.395 l 2.52,5.58 a 29.655,29.655 0 0 1 -4.0051,1.44 20.955,20.955 0 0 1 -5.625,0.63 20.505,20.505 0 0 1 -9.27,-2.25 24.36,24.36 0 0 1 -7.965,-6.48 32.7675,32.7675 0 0 1 -5.535,-10.305 42.42,42.42 0 0 1 -2.07,-13.725 19.68,19.68 0 0 1 0.63,-4.770004 12.9825,12.9825 0 0 1 2.25,-4.68 12.12,12.12 0 0 1 4.455,-3.555 16.41,16.41 0 0 1 7.245,-1.395 17.5125,17.5125 0 0 1 3.42,0.36 28.8225,28.8225 0 0 1 3.645,0.99 26.805,26.805 0 0 1 3.6,1.5 15.48,15.48 0 0 1 3.1051,2.07 z m 39.1499,0.36 a 20.0775,20.0775 0 0 0 -5.0849,-2.745 19.44,19.44 0 0 0 -7.245,-1.305 8.085,8.085 0 0 0 -7.02,3.105 13.4025,13.4025 0 0 0 -2.25,8.055004 23.4525,23.4525 0 0 0 0.18,2.7 q 0.18,1.5 0.54,3.24 1.26,-0.09 2.43,-0.135 1.17,-0.045 2.25,-0.045 a 36.2625,36.2625 0 0 1 18.06,3.6675 11.1825,11.1825 0 0 1 6.2099,10.035 11.6475,11.6475 0 0 1 -0.7499,4.095 9.1875,9.1875 0 0 1 -2.25,3.42 11.25,11.25 0 0 1 -3.915,2.385 15.9375,15.9375 0 0 1 -5.625,0.9 19.245,19.245 0 0 1 -8.775,-2.16 24.0975,24.0975 0 0 1 -7.65,-6.21 31.9425,31.9425 0 0 1 -5.445,-9.9 39.51,39.51 0 0 1 -2.07,-13.23 16.845,16.845 0 0 1 3.645,-11.520004 13.6875,13.6875 0 0 1 10.845,-4.14 27.555,27.555 0 0 1 8.595,1.395 21.51,21.51 0 0 1 7.425,4.095 z m -2.2425,31.095004 a 5.34,5.34 0 0 0 2.025,-1.26 4.605,4.605 0 0 0 1.035,-1.71 5.82,5.82 0 0 0 0.315,-1.845 5.7225,5.7225 0 0 0 -1.98,-4.635 12.3375,12.3375 0 0 0 -4.995,-2.43 33.945,33.945 0 0 0 -6.705,-0.945 q -3.69,-0.18 -7.1099,-0.18 a 21.3,21.3 0 0 0 5.5349,10.125 12.2325,12.2325 0 0 0 8.5951,3.375 9.3675,9.3675 0 0 0 3.2849,-0.495 z m 50.175,5.175 h -7.1999 l 7.7399,-45.000004 a 39,39 0 0 0 -5.85,-9.09 7.425,7.425 0 0 0 -5.25,-2.7 6.2925,6.2925 0 0 0 -2.16,0.36 l -2.16,-6.21 a 6.9825,6.9825 0 0 1 2.025,-0.63 17.04,17.04 0 0 1 2.655,-0.18 8.8425,8.8425 0 0 1 5.4,1.98 25.7775,25.7775 0 0 1 5.04,5.25 65.67,65.67 0 0 1 4.725,7.5 q 2.295,4.185 4.635,8.595 l 21.24,40.140004 h -7.2 l -14.94,-29.07 -3.375,-8.745004 h -0.45 l -0.45,8.640004 z m 32.355,-36.450004 a 13.4325,13.4325 0 0 1 2.52,-4.86 12.75,12.75 0 0 1 4.5,-3.465 15.75,15.75 0 0 1 6.7951,-1.305 17.25,17.25 0 0 1 9,2.475 24.255,24.255 0 0 1 7.2449,6.795 34.0125,34.0125 0 0 1 4.86,10.170004 43.65,43.65 0 0 1 1.755,12.6 22.44,22.44 0 0 1 -0.75,5.715 13.1625,13.1625 0 0 1 -2.385,4.86 11.46,11.46 0 0 1 -4.32,3.33 15.3975,15.3975 0 0 1 -6.435,1.215 18.75,18.75 0 0 1 -9.135,-2.34 23.9475,23.9475 0 0 1 -7.5,-6.57 32.415,32.415 0 0 1 -5.085,-10.125 43.395,43.395 0 0 1 -1.845,-13.0275 20.04,20.04 0 0 1 0.7876,-5.467504 z m 7.65,16.425004 a 29.7975,29.7975 0 0 0 3.33,7.875 19.5,19.5 0 0 0 4.815,5.445 9.3075,9.3075 0 0 0 5.67,2.025 6.9075,6.9075 0 0 0 6.345,-2.655 13.56,13.56 0 0 0 1.665,-7.245 37.995,37.995 0 0 0 -1.215,-9.675 34.635,34.635 0 0 0 -3.24,-8.25 19.215,19.215 0 0 0 -4.68,-5.715004 8.88,8.88 0 0 0 -5.625,-2.115 7.1475,7.1475 0 0 0 -6.3,2.835 14.1375,14.1375 0 0 0 -1.98,8.145004 35.25,35.25 0 0 0 1.2225,9.33 z m 46.575,20.025 -6.12,-29.25 a 32.4375,32.4375 0 0 1 -0.9,-7.110004 13.1475,13.1475 0 0 1 0.75,-4.725 7.59,7.59 0 0 1 1.98,-3 7.1175,7.1175 0 0 1 2.925,-1.575 13.9425,13.9425 0 0 1 3.645,-0.45 15.345,15.345 0 0 1 5.13,0.855 21.9225,21.9225 0 0 1 4.545,2.205 24.09,24.09 0 0 1 3.87,3.06 30.1575,30.1575 0 0 1 3.105,3.51 h 0.315 v -8.55 h 5.31 v 1.2 q 0,1.71 0.18,4.005 0.18,2.295 0.495,4.725 0.315,2.430004 0.675,4.635004 0.36,2.205 0.75,3.75 l 5.67,26.73 h -6.75 l -6,-28.62 a 28.665,28.665 0 0 0 -6.435,-7.830004 20.58,20.58 0 0 0 -4.23,-2.79 9.8625,9.8625 0 0 0 -4.365,-1.08 3.8325,3.8325 0 0 0 -3.6,1.665 8.07,8.07 0 0 0 -0.99,4.185 20.8425,20.8425 0 0 0 0.54,4.500004 l 6.3,30 h -6.75 z m 98.6401,-45.000004 6.39,29.880004 a 31.665,31.665 0 0 1 0.81,6.48 9.36,9.36 0 0 1 -2.61,7.56 10.815,10.815 0 0 1 -7.11,2.16 17.3025,17.3025 0 0 1 -5.58,-0.855 21.945,21.945 0 0 1 -4.545,-2.115 21.5775,21.5775 0 0 1 -3.6451,-2.835 35.535,35.535 0 0 1 -2.79,-3 h -0.315 l 0.36,7.74 h -4.68 l -9.54,-45.000004 h 6.75 l 5.94,28.800004 a 29.8425,29.8425 0 0 0 2.655,4.005 24.345,24.345 0 0 0 3.5551,3.69 20.0475,20.0475 0 0 0 4.23,2.745 10.5,10.5 0 0 0 4.59,1.08 5.3775,5.3775 0 0 0 4.545,-1.62 6.87,6.87 0 0 0 1.215,-4.23 16.9275,16.9275 0 0 0 -0.27,-2.835 q -0.27,-1.575 -0.63,-3.195 l -6,-28.440004 h 6.75 z m 45.54,8.73 a 20.0775,20.0775 0 0 0 -5.085,-2.745 19.44,19.44 0 0 0 -7.245,-1.305 8.085,8.085 0 0 0 -7.02,3.105 13.4025,13.4025 0 0 0 -2.25,8.055004 23.4525,23.4525 0 0 0 0.18,2.7 q 0.18,1.5 0.54,3.24 1.26,-0.09 2.43,-0.135 1.17,-0.045 2.25,-0.045 a 36.2625,36.2625 0 0 1 18.0975,3.6675 11.1825,11.1825 0 0 1 6.21,10.035 11.6475,11.6475 0 0 1 -0.75,4.095 9.1875,9.1875 0 0 1 -2.25,3.42 11.25,11.25 0 0 1 -3.915,2.385 15.9375,15.9375 0 0 1 -5.625,0.9 19.245,19.245 0 0 1 -8.775,-2.16 24.0975,24.0975 0 0 1 -7.65,-6.21 31.9425,31.9425 0 0 1 -5.445,-9.9 39.51,39.51 0 0 1 -2.07,-13.23 16.845,16.845 0 0 1 3.645,-11.520004 13.6875,13.6875 0 0 1 10.845,-4.14 27.555,27.555 0 0 1 8.595,1.395 21.51,21.51 0 0 1 7.425,4.095 z m -2.205,31.095004 a 5.34,5.34 0 0 0 2.025,-1.26 4.605,4.605 0 0 0 1.035,-1.71 5.82,5.82 0 0 0 0.315,-1.845 5.7225,5.7225 0 0 0 -1.98,-4.635 12.3375,12.3375 0 0 0 -4.995,-2.43 33.945,33.945 0 0 0 -6.705,-0.945 q -3.69,-0.18 -7.11,-0.18 a 21.3,21.3 0 0 0 5.535,10.125 12.2325,12.2325 0 0 0 8.595,3.375 9.3675,9.3675 0 0 0 3.2925,-0.495 z m 46.125,-31.095004 a 20.0775,20.0775 0 0 0 -5.085,-2.745 19.44,19.44 0 0 0 -7.245,-1.305 8.085,8.085 0 0 0 -7.02,3.105 13.4025,13.4025 0 0 0 -2.25,8.055004 23.4525,23.4525 0 0 0 0.18,2.7 q 0.18,1.5 0.54,3.24 1.26,-0.09 2.43,-0.135 1.17,-0.045 2.25,-0.045 a 36.2625,36.2625 0 0 1 18.0975,3.6675 11.1825,11.1825 0 0 1 6.21,10.035 11.6475,11.6475 0 0 1 -0.75,4.095 9.1875,9.1875 0 0 1 -2.25,3.42 11.25,11.25 0 0 1 -3.915,2.385 15.9375,15.9375 0 0 1 -5.625,0.9 19.245,19.245 0 0 1 -8.775,-2.16 24.0975,24.0975 0 0 1 -7.65,-6.21 31.9425,31.9425 0 0 1 -5.445,-9.9 39.51,39.51 0 0 1 -2.07,-13.23 16.845,16.845 0 0 1 3.645,-11.520004 13.6875,13.6875 0 0 1 10.845,-4.14 27.555,27.555 0 0 1 8.595,1.395 21.51,21.51 0 0 1 7.425,4.095 z m -2.205,31.095004 a 5.34,5.34 0 0 0 2.025,-1.26 4.605,4.605 0 0 0 1.035,-1.71 5.82,5.82 0 0 0 0.315,-1.845 5.7225,5.7225 0 0 0 -1.98,-4.635 12.3375,12.3375 0 0 0 -4.995,-2.43 33.945,33.945 0 0 0 -6.705,-0.945 q -3.69,-0.18 -7.11,-0.18 a 21.3,21.3 0 0 0 5.535,10.125 12.2325,12.2325 0 0 0 8.595,3.375 9.3675,9.3675 0 0 0 3.2925,-0.495 z m 61.065,23.175 h -6.75 l -3.96,-18.75 -1.89,0.675 a 12.54,12.54 0 0 1 -1.935,0.495 c -0.69,0.12 -1.4325,0.21 -2.205,0.27 -0.7725,0.06 -1.71,0.09 -2.79,0.09 a 18.1275,18.1275 0 0 1 -10.305,-3 25.8525,25.8525 0 0 1 -7.425,-7.56 36.12,36.12 0 0 1 -4.5,-10.215 41.25,41.25 0 0 1 -1.5,-10.935 18.4425,18.4425 0 0 1 2.925,-11.565004 9.5625,9.5625 0 0 1 7.875,-3.645 13.8225,13.8225 0 0 1 4.545,0.75 19.875,19.875 0 0 1 4.185,2.025 22.635,22.635 0 0 1 3.6,2.835 22.3125,22.3125 0 0 1 2.7,3.105 h 0.36 l 1.26,-7.83 h 4.5 q -0.09,0.81 -0.135,1.62 c 0,0.54 -0.045,1.14 -0.045,1.8 a 48.75,48.75 0 0 0 0.36,5.67 q 0.345,3.060004 1.08,6.570004 z m -34.65,-55.665004 a 13.125,13.125 0 0 0 -1.44,6.345004 44.295,44.295 0 0 0 1.125,9.81 32.3775,32.3775 0 0 0 3.105,8.46 18.39,18.39 0 0 0 4.905,5.895 10.395,10.395 0 0 0 6.48,2.205 25.7775,25.7775 0 0 0 5.085,-0.405 10.215,10.215 0 0 0 3.465,-1.395 l -5.04,-23.4 a 21.6375,21.6375 0 0 0 -2.205,-3.285 25.4175,25.4175 0 0 0 -3.15,-3.285004 19.395,19.395 0 0 0 -3.75,-2.565 8.31,8.31 0 0 0 -3.87,-1.035 4.9125,4.9125 0 0 0 -4.7025,2.655 z m 104.0325,36.675004 a 47.9475,47.9475 0 0 1 -6.75,1.575 39.9825,39.9825 0 0 1 -6.1575,0.585 21.84,21.84 0 0 1 -11.805,-3.06 25.5,25.5 0 0 1 -7.9875,-7.83 35.04,35.04 0 0 1 -4.5825,-10.71 48.12,48.12 0 0 1 -1.5,-11.7 q 0,-13.950004 10.71,-13.950004 a 13.665,13.665 0 0 1 4.59,0.75 18.2025,18.2025 0 0 1 4.05,2.025 22.575,22.575 0 0 1 3.465,2.835 23.9475,23.9475 0 0 1 2.655,3.105 h 0.36 l 1.26,-7.83 h 4.95 a 12.3675,12.3675 0 0 0 -0.18,2.205 v 2.58 q 0,3 0.27,6.39 a 50.8725,50.8725 0 0 0 0.99,6.750004 z m -30.24,-36.945004 a 11.6175,11.6175 0 0 0 -1.35,5.805004 46.3275,46.3275 0 0 0 1.08,9.9 32.67,32.67 0 0 0 3.24,8.865 20.1825,20.1825 0 0 0 5.31,6.345 11.6025,11.6025 0 0 0 7.29,2.43 16.2075,16.2075 0 0 0 6.84,-1.26 l -5.04,-24.3 a 23.4975,23.4975 0 0 0 -2.16,-3.285 22.77,22.77 0 0 0 -3.105,-3.285004 19.17,19.17 0 0 0 -3.75,-2.565 8.8125,8.8125 0 0 0 -4.14,-1.035 4.5,4.5 0 0 0 -4.2075,2.385 z m 37.35,-4.275 a 15.09,15.09 0 0 1 5.355,-2.52 30.0525,30.0525 0 0 1 8.505,-1.08 22.2825,22.2825 0 0 1 9.675,2.25 25.38,25.38 0 0 1 8.415,6.57 33.6,33.6 0 0 1 5.94,10.575004 42.285,42.285 0 0 1 2.25,14.355 16.92,16.92 0 0 1 -2.43,9.405 8.5575,8.5575 0 0 1 -7.74,3.75 15,15 0 0 1 -4.86,-0.75 19.6725,19.6725 0 0 1 -4.23,-2.025 22.5,22.5 0 0 1 -3.6,-2.835 31.1925,31.1925 0 0 1 -2.88,-3.195 h -0.36 l 5.49,25.74 h -6.75 z m 31.545,35.325004 a 12.99,12.99 0 0 0 1.395,-6.795 34.785,34.785 0 0 0 -1.665,-11.205 28.275,28.275 0 0 0 -4.275,-8.25 19.1175,19.1175 0 0 0 -5.76,-5.130004 12.4125,12.4125 0 0 0 -6,-1.755 13.2225,13.2225 0 0 0 -7.65,1.89 l 4.5,21.150004 a 27,27 0 0 0 2.835,4.275 28.8525,28.8525 0 0 0 3.87,4.005 20.7825,20.7825 0 0 0 4.455,2.925 10.5525,10.5525 0 0 0 4.59,1.125 4.245,4.245 0 0 0 3.7125,-2.235 z m 18.99,-29.565004 a 13.4325,13.4325 0 0 1 2.52,-4.86 12.75,12.75 0 0 1 4.5,-3.465 15.75,15.75 0 0 1 6.795,-1.305 17.25,17.25 0 0 1 9,2.475 24.255,24.255 0 0 1 7.245,6.795 34.0125,34.0125 0 0 1 4.86,10.170004 43.65,43.65 0 0 1 1.755,12.6 22.44,22.44 0 0 1 -0.75,5.715 13.1625,13.1625 0 0 1 -2.385,4.86 11.46,11.46 0 0 1 -4.32,3.33 15.3975,15.3975 0 0 1 -6.435,1.215 18.75,18.75 0 0 1 -9.135,-2.34 23.9475,23.9475 0 0 1 -7.5,-6.57 32.415,32.415 0 0 1 -5.085,-10.125 43.395,43.395 0 0 1 -1.8075,-13.0275 20.04,20.04 0 0 1 0.75,-5.467504 z m 7.65,16.425004 a 29.7975,29.7975 0 0 0 3.33,7.875 19.5,19.5 0 0 0 4.815,5.445 9.3075,9.3075 0 0 0 5.67,2.025 6.9075,6.9075 0 0 0 6.345,-2.655 13.56,13.56 0 0 0 1.665,-7.245 37.995,37.995 0 0 0 -1.215,-9.675 34.635,34.635 0 0 0 -3.24,-8.25 19.215,19.215 0 0 0 -4.68,-5.715004 8.88,8.88 0 0 0 -5.625,-2.115 7.1475,7.1475 0 0 0 -6.3,2.835 14.1375,14.1375 0 0 0 -1.98,8.145004 35.25,35.25 0 0 0 1.2225,9.33 z m 46.575,20.025 -6.12,-29.25 a 32.4375,32.4375 0 0 1 -0.9,-7.110004 13.1475,13.1475 0 0 1 0.75,-4.725 7.59,7.59 0 0 1 1.98,-3 7.1175,7.1175 0 0 1 2.925,-1.575 13.9425,13.9425 0 0 1 3.645,-0.45 15.345,15.345 0 0 1 5.13,0.855 21.9225,21.9225 0 0 1 4.545,2.205 24.09,24.09 0 0 1 3.87,3.06 30.1575,30.1575 0 0 1 3.105,3.51 h 0.3525 v -8.55 h 5.31 v 1.2 q 0,1.71 0.18,4.005 0.18,2.295 0.495,4.725 0.315,2.430004 0.675,4.635004 0.36,2.205 0.75,3.75 l 5.67,26.73 h -6.75 l -6,-28.62 a 28.665,28.665 0 0 0 -6.435,-7.830004 20.58,20.58 0 0 0 -4.23,-2.79 9.8625,9.8625 0 0 0 -4.365,-1.08 3.8325,3.8325 0 0 0 -3.6,1.665 8.07,8.07 0 0 0 -0.99,4.185 20.8425,20.8425 0 0 0 0.54,4.500004 l 6.3,30 h -6.75 z m 40.86,-5.76 h 6.75 l -6.12,-29.070004 a 19.8825,19.8825 0 0 1 -0.45,-3.75 6.9375,6.9375 0 0 1 8.19,-7.5 25.5975,25.5975 0 0 1 5.67,0.675 17.82,17.82 0 0 1 4.86,1.755 v 5.49 a 15.87,15.87 0 0 0 -3.6,-1.62 13.74,13.74 0 0 0 -3.96,-0.54 4.6125,4.6125 0 0 0 -3,0.81 3.6825,3.6825 0 0 0 -0.99,3 11.04,11.04 0 0 0 0.135,1.62 q 0.135,0.9 0.315,1.980004 l 5.67,27.18 h 11.7 l 1.35,5.76 h -11.79 l 2.34,10.98 -7.2,-2.07 -1.89,-8.91 h -6.66 z m 56.7,0 h 6.75 l -6.12,-29.070004 a 19.8825,19.8825 0 0 1 -0.45,-3.75 6.9375,6.9375 0 0 1 8.19,-7.5 25.5975,25.5975 0 0 1 5.67,0.675 17.82,17.82 0 0 1 4.86,1.755 v 5.49 a 15.87,15.87 0 0 0 -3.6,-1.62 13.74,13.74 0 0 0 -3.96,-0.54 4.6125,4.6125 0 0 0 -3,0.81 3.6825,3.6825 0 0 0 -0.99,3 11.04,11.04 0 0 0 0.135,1.62 q 0.135,0.9 0.315,1.980004 l 5.67,27.18 h 11.7 l 1.35,5.76 h -11.79 l 2.34,10.98 -7.2,-2.07 -1.89,-8.91 h -6.66 z m 59.76,5.76 a 14.805,14.805 0 0 1 -4.14,0.63 11.1975,11.1975 0 0 1 -3.96,-0.675 12.945,12.945 0 0 1 -3.33,-1.845 18,18 0 0 1 -2.79,-2.655 28.29,28.29 0 0 1 -2.34,-3.195 h -0.3525 v 7.74 h -4.68 l -9.54,-45.000004 h 6.75 l 6.21,29.520004 a 20.31,20.31 0 0 0 5.25,7.02 11.715,11.715 0 0 0 7.92,2.88 15.3375,15.3375 0 0 0 1.575,-0.09 15.1725,15.1725 0 0 0 1.665,-0.27 z m 40.14,-0.99 a 48.3075,48.3075 0 0 1 -6.75,1.575 39.8925,39.8925 0 0 1 -6.15,0.585 21.8475,21.8475 0 0 1 -11.8125,-3.06 25.5,25.5 0 0 1 -7.9875,-7.83 35.04,35.04 0 0 1 -4.5825,-10.71 48.48,48.48 0 0 1 -1.5,-11.7 q 0,-13.950004 10.71,-13.950004 a 13.665,13.665 0 0 1 4.59,0.75 18.2025,18.2025 0 0 1 4.05,2.025 22.575,22.575 0 0 1 3.465,2.835 23.9475,23.9475 0 0 1 2.655,3.105 h 0.36 l 1.26,-7.83 h 4.95 a 12.3675,12.3675 0 0 0 -0.18,2.205 v 2.58 q 0,3 0.27,6.39 a 50.8725,50.8725 0 0 0 0.975,6.787504 z m -30.24,-36.945004 a 11.6175,11.6175 0 0 0 -1.35,5.805004 46.3275,46.3275 0 0 0 1.08,9.9 32.67,32.67 0 0 0 3.24,8.865 20.1825,20.1825 0 0 0 5.31,6.345 11.6025,11.6025 0 0 0 7.29,2.43 16.2075,16.2075 0 0 0 6.84,-1.26 l -5.04,-24.3 a 23.4975,23.4975 0 0 0 -2.16,-3.285 22.77,22.77 0 0 0 -3.105,-3.285004 19.17,19.17 0 0 0 -3.75,-2.565 8.8125,8.8125 0 0 0 -4.14,-1.035 4.5,4.5 0 0 0 -4.2075,2.385 z m 46.08,37.935004 h -7.2 l 8.73,-45.990004 h 2.88 l 28.08,45.990004 h -7.7325 l -15.21,-26.19 -3.87,-8.730004 h -0.195 l -0.81,8.550004 z m 61.11,-36.270004 a 20.0775,20.0775 0 0 0 -5.085,-2.745 19.44,19.44 0 0 0 -7.245,-1.305 8.085,8.085 0 0 0 -7.02,3.105 13.4025,13.4025 0 0 0 -2.25,8.055004 23.4525,23.4525 0 0 0 0.18,2.7 q 0.18,1.5 0.54,3.24 1.26,-0.09 2.43,-0.135 1.17,-0.045 2.25,-0.045 a 36.2625,36.2625 0 0 1 18.0975,3.6675 11.1825,11.1825 0 0 1 6.21,10.035 11.6475,11.6475 0 0 1 -0.75,4.095 9.1875,9.1875 0 0 1 -2.25,3.42 11.25,11.25 0 0 1 -3.915,2.385 15.9375,15.9375 0 0 1 -5.625,0.9 19.245,19.245 0 0 1 -8.775,-2.16 24.0975,24.0975 0 0 1 -7.65,-6.21 31.9425,31.9425 0 0 1 -5.445,-9.9 39.51,39.51 0 0 1 -2.07,-13.23 16.845,16.845 0 0 1 3.645,-11.520004 13.6875,13.6875 0 0 1 10.845,-4.14 27.555,27.555 0 0 1 8.595,1.395 21.51,21.51 0 0 1 7.425,4.095 z m -2.205,31.095004 a 5.34,5.34 0 0 0 2.025,-1.26 4.605,4.605 0 0 0 1.035,-1.71 5.82,5.82 0 0 0 0.315,-1.845 5.7225,5.7225 0 0 0 -1.98,-4.635 12.3375,12.3375 0 0 0 -4.995,-2.43 33.945,33.945 0 0 0 -6.705,-0.945 q -3.69,-0.18 -7.11,-0.18 a 21.3,21.3 0 0 0 5.535,10.125 12.2325,12.2325 0 0 0 8.595,3.375 9.3675,9.3675 0 0 0 3.2925,-0.495 z m 36.225,23.175 h -6.75 l -11.16,-52.650004 a 22.41,22.41 0 0 1 -0.54,-4.41 6.3225,6.3225 0 0 1 1.89,-5.31 8.115,8.115 0 0 1 5.04,-1.44 17.16,17.16 0 0 1 2.025,0.135 q 1.125,0.135 2.25,0.315 a 18.195,18.195 0 0 1 2.205,0.495 9.105,9.105 0 0 1 1.89,0.75 v 5.145 a 18.285,18.285 0 0 0 -2.925,-0.855 16.875,16.875 0 0 0 -3,-0.225 1.875,1.875 0 0 0 -1.575,0.75 4.11,4.11 0 0 0 -0.585,2.475 15.075,15.075 0 0 0 0.27,2.52 z"
       style="fill:#7d7d7d;fill-opacity:1;stroke-width:7.5" />
  </g>
</svg>
